<?plantuml 1.2026.2?><svg xmlns="http://www.w3.org/2000/svg" xmlns:xlink="http://www.w3.org/1999/xlink" contentStyleType="text/css" data-diagram-type="CLASS" height="118px" preserveAspectRatio="none" style="width:531px;height:118px;" version="1.1" viewBox="0 0 531 118" width="531px" zoomAndPan="magnify"><defs/><g><!--class CommandRouter--><g class="entity" data-qualified-name="CommandRouter" data-source-line="3" id="ent0002"><rect fill="#F1F1F1" height="97.4648" rx="2.5" ry="2.5" style="stroke:#181818;stroke-width:0.5;" width="510.5996" x="7" y="7"/><ellipse cx="200.7681" cy="23" fill="#ADD1B2" rx="11" ry="11" style="stroke:#181818;stroke-width:1;"/><path d="M203.2412,29.1431 Q202.6602,29.4419 202.021,29.5913 Q201.3818,29.7407 200.6763,29.7407 Q198.1694,29.7407 196.8496,28.0889 Q195.5298,26.437 195.5298,23.3159 Q195.5298,20.1865 196.8496,18.5347 Q198.1694,16.8828 200.6763,16.8828 Q201.3818,16.8828 202.0293,17.0322 Q202.6768,17.1816 203.2412,17.4805 L203.2412,20.2031 Q202.6104,19.6221 202.0168,19.3523 Q201.4233,19.0825 200.7925,19.0825 Q199.4478,19.0825 198.7629,20.1492 Q198.0781,21.2158 198.0781,23.3159 Q198.0781,25.4077 198.7629,26.4744 Q199.4478,27.541 200.7925,27.541 Q201.4233,27.541 202.0168,27.2712 Q202.6104,27.0015 203.2412,26.4204 Z " fill="#000000"/><text fill="#000000" font-family="sans-serif" font-size="14" lengthAdjust="spacing" textLength="114.5635" x="221.2681" y="28.291">CommandRouter</text><line style="stroke:#181818;stroke-width:0.5;" x1="8" x2="516.5996" y1="39" y2="39"/><g data-visibility-modifier="PRIVATE_FIELD"><rect fill="none" height="6" style="stroke:#C82930;stroke-width:1;" width="6" x="15" y="49.7441"/></g><text fill="#000000" font-family="sans-serif" font-size="14" lengthAdjust="spacing" textLength="459.2725" x="27" y="56.5352">handlers: Map&lt;Class&lt;? extends Request&gt;, CommandHandler&lt;?&gt;&gt;</text><line style="stroke:#181818;stroke-width:0.5;" x1="8" x2="516.5996" y1="63.4883" y2="63.4883"/><g data-visibility-modifier="PUBLIC_METHOD"><ellipse cx="18" cy="77.2324" fill="#84BE84" rx="3" ry="3" style="stroke:#038048;stroke-width:1;"/></g><text fill="#000000" font-family="sans-serif" font-size="14" lengthAdjust="spacing" textLength="484.5996" x="27" y="81.0234">register(requestClass: Class&lt;T&gt;, handler: CommandHandler&lt;T&gt;): void</text><g data-visibility-modifier="PUBLIC_METHOD"><ellipse cx="18" cy="93.7207" fill="#84BE84" rx="3" ry="3" style="stroke:#038048;stroke-width:1;"/></g><text fill="#000000" font-family="sans-serif" font-size="14" lengthAdjust="spacing" textLength="214.1357" x="27" y="97.5117">execute(request: Request): void</text></g><?plantuml-src NOun3i8m34NtdC8Z2BX0LAL35nQMgXSmZLMgjacn4rG9SNT2sonujDz_tpBqRaR62UxO3Xtxw6pbHyyG69sa4xcWL3kY25H-cj3PsiT036y5QIxmIAkHM3JSS2wg7rcKG4iWPmLgUaQIOCuvVTtmeZHc5Po0gUib6G-yiQj2msPgKd9lqF-AnXmrl7nlTn4jrARNiaVdyanzr1S0?></g></svg>